<?xml version="1.0" encoding="utf-8"?>
<svg version="1.1" xmlns:xlink="http://www.w3.org/1999/xlink" width="20px" height="16px" xmlns="http://www.w3.org/2000/svg">
  <g transform="matrix(1 0 0 1 -347 -74 )">
    <path d="M 19.9982222222222 0  L 19.9982222222222 3  L 6.65777777777777 3  L 6.65777777777777 0  L 19.9982222222222 0  Z M 2.73244444444441 2.77155555555557  L 2.71822222222221 2.77155555555557  L 0.001777777777761 2.77155555555557  L 0.001777777777761 0.0408888888888868  L 2.73244444444441 0.0408888888888868  L 2.73244444444441 2.77155555555557  Z M 19.9982222222222 6.41244444444445  L 19.9982222222222 9  L 6.65777777777777 9  L 6.65777777777777 6.41244444444445  L 19.9982222222222 6.41244444444445  Z M 2.73244444444441 9.14311111111111  L 2.71822222222221 9.14311111111111  L 0.001777777777761 9.14311111111111  L 0.001777777777761 6.41244444444445  L 2.73244444444441 6.41244444444445  L 2.73244444444441 9.14311111111111  Z M 19.9982222222222 12.784  L 19.9982222222222 15.5146666666667  L 6.65777777777777 15.5146666666667  L 6.65777777777777 12.784  L 19.9982222222222 12.784  Z M 2.73244444444441 15.5146666666667  L 2.71822222222221 15.5146666666667  L 0.001777777777761 15.5146666666667  L 0.001777777777761 12.784  L 2.73244444444441 12.784  L 2.73244444444441 15.5146666666667  Z " fill-rule="nonzero" fill="#000000" stroke="none" transform="matrix(1 0 0 1 347 74 )" />
  </g>
</svg>